<mxfile host="app.diagrams.net" modified="2024-05-19T18:04:49.097Z" agent="Mozilla/5.0 (Windows NT 10.0; Win64; x64) AppleWebKit/537.36 (KHTML, like Gecko) Chrome/124.0.0.0 Safari/537.36" etag="hExZ8cmNvK5zhMHYz4N-" version="24.4.4" type="device">
  <diagram name="Pagina-1" id="nq-3NIjEFCvoy47btMVN">
    <mxGraphModel dx="3333" dy="2060" grid="1" gridSize="10" guides="1" tooltips="1" connect="1" arrows="1" fold="1" page="1" pageScale="1" pageWidth="827" pageHeight="1169" math="0" shadow="0">
      <root>
        <mxCell id="0" />
        <mxCell id="1" parent="0" />
        <mxCell id="4aJQE2NeYYkSTtwL2ucY-1" value="Utente" style="whiteSpace=wrap;html=1;align=center;" vertex="1" parent="1">
          <mxGeometry x="240" y="-150" width="100" height="40" as="geometry" />
        </mxCell>
        <mxCell id="4aJQE2NeYYkSTtwL2ucY-2" value="Nome" style="ellipse;whiteSpace=wrap;html=1;align=center;" vertex="1" parent="1">
          <mxGeometry x="420" y="-280" width="100" height="40" as="geometry" />
        </mxCell>
        <mxCell id="4aJQE2NeYYkSTtwL2ucY-3" value="Username" style="ellipse;whiteSpace=wrap;html=1;align=center;" vertex="1" parent="1">
          <mxGeometry x="420" y="-180" width="100" height="40" as="geometry" />
        </mxCell>
        <mxCell id="4aJQE2NeYYkSTtwL2ucY-4" value="Cognome" style="ellipse;whiteSpace=wrap;html=1;align=center;" vertex="1" parent="1">
          <mxGeometry x="420" y="-230" width="100" height="40" as="geometry" />
        </mxCell>
        <mxCell id="4aJQE2NeYYkSTtwL2ucY-5" value="Password" style="ellipse;whiteSpace=wrap;html=1;align=center;" vertex="1" parent="1">
          <mxGeometry x="420" y="-130" width="100" height="40" as="geometry" />
        </mxCell>
        <mxCell id="4aJQE2NeYYkSTtwL2ucY-6" value="Email" style="ellipse;whiteSpace=wrap;html=1;align=center;" vertex="1" parent="1">
          <mxGeometry x="420" y="-80" width="100" height="40" as="geometry" />
        </mxCell>
        <mxCell id="4aJQE2NeYYkSTtwL2ucY-7" value="Tipo-utente" style="ellipse;whiteSpace=wrap;html=1;align=center;" vertex="1" parent="1">
          <mxGeometry x="420" y="-30" width="100" height="40" as="geometry" />
        </mxCell>
        <mxCell id="4aJQE2NeYYkSTtwL2ucY-8" value="" style="endArrow=none;html=1;rounded=0;exitX=1;exitY=0.5;exitDx=0;exitDy=0;entryX=0;entryY=0.5;entryDx=0;entryDy=0;" edge="1" parent="1" source="4aJQE2NeYYkSTtwL2ucY-1" target="4aJQE2NeYYkSTtwL2ucY-2">
          <mxGeometry relative="1" as="geometry">
            <mxPoint x="340" y="-150" as="sourcePoint" />
            <mxPoint x="500" y="-150" as="targetPoint" />
          </mxGeometry>
        </mxCell>
        <mxCell id="4aJQE2NeYYkSTtwL2ucY-9" value="" style="endArrow=none;html=1;rounded=0;exitX=1;exitY=0.5;exitDx=0;exitDy=0;entryX=0;entryY=0.5;entryDx=0;entryDy=0;" edge="1" parent="1" source="4aJQE2NeYYkSTtwL2ucY-1" target="4aJQE2NeYYkSTtwL2ucY-4">
          <mxGeometry relative="1" as="geometry">
            <mxPoint x="340" y="-150" as="sourcePoint" />
            <mxPoint x="500" y="-150" as="targetPoint" />
          </mxGeometry>
        </mxCell>
        <mxCell id="4aJQE2NeYYkSTtwL2ucY-10" value="" style="endArrow=none;html=1;rounded=0;exitX=1;exitY=0.5;exitDx=0;exitDy=0;entryX=0;entryY=0.5;entryDx=0;entryDy=0;" edge="1" parent="1" source="4aJQE2NeYYkSTtwL2ucY-1" target="4aJQE2NeYYkSTtwL2ucY-3">
          <mxGeometry relative="1" as="geometry">
            <mxPoint x="340" y="-150" as="sourcePoint" />
            <mxPoint x="500" y="-150" as="targetPoint" />
          </mxGeometry>
        </mxCell>
        <mxCell id="4aJQE2NeYYkSTtwL2ucY-11" value="" style="endArrow=none;html=1;rounded=0;exitX=1;exitY=0.5;exitDx=0;exitDy=0;entryX=0;entryY=0.5;entryDx=0;entryDy=0;" edge="1" parent="1" source="4aJQE2NeYYkSTtwL2ucY-1" target="4aJQE2NeYYkSTtwL2ucY-5">
          <mxGeometry relative="1" as="geometry">
            <mxPoint x="340" y="-150" as="sourcePoint" />
            <mxPoint x="500" y="-150" as="targetPoint" />
          </mxGeometry>
        </mxCell>
        <mxCell id="4aJQE2NeYYkSTtwL2ucY-12" value="" style="endArrow=none;html=1;rounded=0;exitX=1;exitY=0.5;exitDx=0;exitDy=0;entryX=0;entryY=0.5;entryDx=0;entryDy=0;" edge="1" parent="1" source="4aJQE2NeYYkSTtwL2ucY-1" target="4aJQE2NeYYkSTtwL2ucY-6">
          <mxGeometry relative="1" as="geometry">
            <mxPoint x="340" y="-150" as="sourcePoint" />
            <mxPoint x="500" y="-150" as="targetPoint" />
          </mxGeometry>
        </mxCell>
        <mxCell id="4aJQE2NeYYkSTtwL2ucY-13" value="" style="endArrow=none;html=1;rounded=0;exitX=1;exitY=0.5;exitDx=0;exitDy=0;entryX=0;entryY=0.5;entryDx=0;entryDy=0;" edge="1" parent="1" source="4aJQE2NeYYkSTtwL2ucY-1" target="4aJQE2NeYYkSTtwL2ucY-7">
          <mxGeometry relative="1" as="geometry">
            <mxPoint x="340" y="-150" as="sourcePoint" />
            <mxPoint x="500" y="-150" as="targetPoint" />
          </mxGeometry>
        </mxCell>
        <mxCell id="4aJQE2NeYYkSTtwL2ucY-14" value="Prodotto" style="whiteSpace=wrap;html=1;align=center;" vertex="1" parent="1">
          <mxGeometry x="-410" y="-100" width="100" height="40" as="geometry" />
        </mxCell>
        <mxCell id="4aJQE2NeYYkSTtwL2ucY-15" value="Contiene" style="shape=rhombus;perimeter=rhombusPerimeter;whiteSpace=wrap;html=1;align=center;" vertex="1" parent="1">
          <mxGeometry x="-240" y="-160" width="120" height="60" as="geometry" />
        </mxCell>
        <mxCell id="4aJQE2NeYYkSTtwL2ucY-16" value="Carrello" style="shape=ext;margin=3;double=1;whiteSpace=wrap;html=1;align=center;" vertex="1" parent="1">
          <mxGeometry x="-60" y="-150" width="100" height="40" as="geometry" />
        </mxCell>
        <mxCell id="4aJQE2NeYYkSTtwL2ucY-17" value="Possiede" style="shape=rhombus;double=1;perimeter=rhombusPerimeter;whiteSpace=wrap;html=1;align=center;" vertex="1" parent="1">
          <mxGeometry x="80" y="-160" width="120" height="60" as="geometry" />
        </mxCell>
        <mxCell id="4aJQE2NeYYkSTtwL2ucY-18" value="" style="shape=link;html=1;rounded=0;entryX=1;entryY=0.5;entryDx=0;entryDy=0;exitX=0;exitY=0.5;exitDx=0;exitDy=0;" edge="1" parent="1" source="4aJQE2NeYYkSTtwL2ucY-17" target="4aJQE2NeYYkSTtwL2ucY-16">
          <mxGeometry relative="1" as="geometry">
            <mxPoint x="80" y="-150" as="sourcePoint" />
            <mxPoint x="240" y="-150" as="targetPoint" />
          </mxGeometry>
        </mxCell>
        <mxCell id="4aJQE2NeYYkSTtwL2ucY-19" value="1" style="resizable=0;html=1;whiteSpace=wrap;align=right;verticalAlign=bottom;" connectable="0" vertex="1" parent="4aJQE2NeYYkSTtwL2ucY-18">
          <mxGeometry x="1" relative="1" as="geometry">
            <mxPoint x="20" as="offset" />
          </mxGeometry>
        </mxCell>
        <mxCell id="4aJQE2NeYYkSTtwL2ucY-20" value="" style="shape=link;html=1;rounded=0;exitX=1;exitY=0.5;exitDx=0;exitDy=0;entryX=0;entryY=0.5;entryDx=0;entryDy=0;" edge="1" parent="1" source="4aJQE2NeYYkSTtwL2ucY-17" target="4aJQE2NeYYkSTtwL2ucY-1">
          <mxGeometry relative="1" as="geometry">
            <mxPoint x="210" y="-130" as="sourcePoint" />
            <mxPoint x="240" y="-150" as="targetPoint" />
          </mxGeometry>
        </mxCell>
        <mxCell id="4aJQE2NeYYkSTtwL2ucY-21" value="1" style="resizable=0;html=1;whiteSpace=wrap;align=right;verticalAlign=bottom;" connectable="0" vertex="1" parent="4aJQE2NeYYkSTtwL2ucY-20">
          <mxGeometry x="1" relative="1" as="geometry">
            <mxPoint x="-10" as="offset" />
          </mxGeometry>
        </mxCell>
        <mxCell id="4aJQE2NeYYkSTtwL2ucY-22" value="" style="endArrow=none;html=1;rounded=0;exitX=0;exitY=0.5;exitDx=0;exitDy=0;entryX=1;entryY=0.5;entryDx=0;entryDy=0;" edge="1" parent="1" source="4aJQE2NeYYkSTtwL2ucY-15" target="4aJQE2NeYYkSTtwL2ucY-14">
          <mxGeometry relative="1" as="geometry">
            <mxPoint x="-110" y="-130" as="sourcePoint" />
            <mxPoint x="50" y="-130" as="targetPoint" />
          </mxGeometry>
        </mxCell>
        <mxCell id="4aJQE2NeYYkSTtwL2ucY-23" value="N" style="resizable=0;html=1;whiteSpace=wrap;align=right;verticalAlign=bottom;" connectable="0" vertex="1" parent="4aJQE2NeYYkSTtwL2ucY-22">
          <mxGeometry x="1" relative="1" as="geometry">
            <mxPoint x="20" y="15" as="offset" />
          </mxGeometry>
        </mxCell>
        <mxCell id="4aJQE2NeYYkSTtwL2ucY-24" value="" style="endArrow=none;html=1;rounded=0;exitX=1;exitY=0.5;exitDx=0;exitDy=0;entryX=0;entryY=0.5;entryDx=0;entryDy=0;" edge="1" parent="1" source="4aJQE2NeYYkSTtwL2ucY-15" target="4aJQE2NeYYkSTtwL2ucY-16">
          <mxGeometry relative="1" as="geometry">
            <mxPoint x="-110" y="-130" as="sourcePoint" />
            <mxPoint x="50" y="-130" as="targetPoint" />
          </mxGeometry>
        </mxCell>
        <mxCell id="4aJQE2NeYYkSTtwL2ucY-25" value="N" style="resizable=0;html=1;whiteSpace=wrap;align=right;verticalAlign=bottom;" connectable="0" vertex="1" parent="4aJQE2NeYYkSTtwL2ucY-24">
          <mxGeometry x="1" relative="1" as="geometry">
            <mxPoint x="-20" as="offset" />
          </mxGeometry>
        </mxCell>
        <mxCell id="4aJQE2NeYYkSTtwL2ucY-26" value="Effettua" style="shape=rhombus;perimeter=rhombusPerimeter;whiteSpace=wrap;html=1;align=center;" vertex="1" parent="1">
          <mxGeometry x="80" y="-60" width="120" height="60" as="geometry" />
        </mxCell>
        <mxCell id="4aJQE2NeYYkSTtwL2ucY-27" value="" style="endArrow=none;html=1;rounded=0;exitX=0;exitY=0.5;exitDx=0;exitDy=0;entryX=1;entryY=0.5;entryDx=0;entryDy=0;" edge="1" parent="1" source="4aJQE2NeYYkSTtwL2ucY-1" target="4aJQE2NeYYkSTtwL2ucY-26">
          <mxGeometry relative="1" as="geometry">
            <mxPoint y="-110" as="sourcePoint" />
            <mxPoint x="160" y="-110" as="targetPoint" />
          </mxGeometry>
        </mxCell>
        <mxCell id="4aJQE2NeYYkSTtwL2ucY-28" value="1" style="resizable=0;html=1;whiteSpace=wrap;align=right;verticalAlign=bottom;" connectable="0" vertex="1" parent="4aJQE2NeYYkSTtwL2ucY-27">
          <mxGeometry x="1" relative="1" as="geometry">
            <mxPoint x="10" y="-50" as="offset" />
          </mxGeometry>
        </mxCell>
        <mxCell id="4aJQE2NeYYkSTtwL2ucY-29" value="Ordine" style="whiteSpace=wrap;html=1;align=center;" vertex="1" parent="1">
          <mxGeometry x="-60" y="60" width="100" height="40" as="geometry" />
        </mxCell>
        <mxCell id="4aJQE2NeYYkSTtwL2ucY-30" value="" style="endArrow=none;html=1;rounded=0;exitX=1;exitY=0;exitDx=0;exitDy=0;entryX=0;entryY=0.5;entryDx=0;entryDy=0;" edge="1" parent="1" source="4aJQE2NeYYkSTtwL2ucY-29" target="4aJQE2NeYYkSTtwL2ucY-26">
          <mxGeometry relative="1" as="geometry">
            <mxPoint x="20" y="-20" as="sourcePoint" />
            <mxPoint x="180" y="-20" as="targetPoint" />
          </mxGeometry>
        </mxCell>
        <mxCell id="4aJQE2NeYYkSTtwL2ucY-31" value="1" style="resizable=0;html=1;whiteSpace=wrap;align=right;verticalAlign=bottom;" connectable="0" vertex="1" parent="4aJQE2NeYYkSTtwL2ucY-30">
          <mxGeometry x="1" relative="1" as="geometry">
            <mxPoint x="-100" y="-60" as="offset" />
          </mxGeometry>
        </mxCell>
        <mxCell id="4aJQE2NeYYkSTtwL2ucY-33" value="" style="endArrow=none;html=1;rounded=0;exitX=0.5;exitY=1;exitDx=0;exitDy=0;entryX=0.5;entryY=0;entryDx=0;entryDy=0;" edge="1" parent="1" source="4aJQE2NeYYkSTtwL2ucY-86" target="4aJQE2NeYYkSTtwL2ucY-29">
          <mxGeometry relative="1" as="geometry">
            <mxPoint x="-120" y="-10" as="sourcePoint" />
            <mxPoint x="60" y="-60" as="targetPoint" />
          </mxGeometry>
        </mxCell>
        <mxCell id="4aJQE2NeYYkSTtwL2ucY-34" value="1" style="resizable=0;html=1;whiteSpace=wrap;align=right;verticalAlign=bottom;" connectable="0" vertex="1" parent="4aJQE2NeYYkSTtwL2ucY-33">
          <mxGeometry x="1" relative="1" as="geometry">
            <mxPoint x="-10" y="-10" as="offset" />
          </mxGeometry>
        </mxCell>
        <mxCell id="4aJQE2NeYYkSTtwL2ucY-37" value="Metodo di pagamento" style="whiteSpace=wrap;html=1;align=center;" vertex="1" parent="1">
          <mxGeometry x="240" y="60" width="100" height="40" as="geometry" />
        </mxCell>
        <mxCell id="4aJQE2NeYYkSTtwL2ucY-38" value="Possiede" style="shape=rhombus;perimeter=rhombusPerimeter;whiteSpace=wrap;html=1;align=center;" vertex="1" parent="1">
          <mxGeometry x="230" y="-50" width="120" height="60" as="geometry" />
        </mxCell>
        <mxCell id="4aJQE2NeYYkSTtwL2ucY-39" value="Usato in" style="shape=rhombus;perimeter=rhombusPerimeter;whiteSpace=wrap;html=1;align=center;" vertex="1" parent="1">
          <mxGeometry x="80" y="50" width="120" height="60" as="geometry" />
        </mxCell>
        <mxCell id="4aJQE2NeYYkSTtwL2ucY-40" value="" style="endArrow=none;html=1;rounded=0;exitX=1;exitY=0.5;exitDx=0;exitDy=0;entryX=0;entryY=0.5;entryDx=0;entryDy=0;" edge="1" parent="1" source="4aJQE2NeYYkSTtwL2ucY-29" target="4aJQE2NeYYkSTtwL2ucY-39">
          <mxGeometry relative="1" as="geometry">
            <mxPoint x="20" y="-80" as="sourcePoint" />
            <mxPoint x="70" y="70" as="targetPoint" />
          </mxGeometry>
        </mxCell>
        <mxCell id="4aJQE2NeYYkSTtwL2ucY-41" value="N" style="resizable=0;html=1;whiteSpace=wrap;align=right;verticalAlign=bottom;" connectable="0" vertex="1" parent="4aJQE2NeYYkSTtwL2ucY-40">
          <mxGeometry x="1" relative="1" as="geometry">
            <mxPoint x="-40" y="-30" as="offset" />
          </mxGeometry>
        </mxCell>
        <mxCell id="4aJQE2NeYYkSTtwL2ucY-42" value="" style="endArrow=none;html=1;rounded=0;exitX=1;exitY=0.5;exitDx=0;exitDy=0;entryX=0;entryY=0.5;entryDx=0;entryDy=0;" edge="1" parent="1" source="4aJQE2NeYYkSTtwL2ucY-39" target="4aJQE2NeYYkSTtwL2ucY-37">
          <mxGeometry relative="1" as="geometry">
            <mxPoint x="20" y="-90" as="sourcePoint" />
            <mxPoint x="180" y="-90" as="targetPoint" />
          </mxGeometry>
        </mxCell>
        <mxCell id="4aJQE2NeYYkSTtwL2ucY-43" value="1" style="resizable=0;html=1;whiteSpace=wrap;align=right;verticalAlign=bottom;" connectable="0" vertex="1" parent="4aJQE2NeYYkSTtwL2ucY-42">
          <mxGeometry x="1" relative="1" as="geometry">
            <mxPoint x="-10" y="20" as="offset" />
          </mxGeometry>
        </mxCell>
        <mxCell id="4aJQE2NeYYkSTtwL2ucY-44" value="" style="endArrow=none;html=1;rounded=0;exitX=0.5;exitY=0;exitDx=0;exitDy=0;entryX=0.5;entryY=1;entryDx=0;entryDy=0;" edge="1" parent="1" source="4aJQE2NeYYkSTtwL2ucY-37" target="4aJQE2NeYYkSTtwL2ucY-38">
          <mxGeometry relative="1" as="geometry">
            <mxPoint x="140" y="40" as="sourcePoint" />
            <mxPoint x="300" y="40" as="targetPoint" />
          </mxGeometry>
        </mxCell>
        <mxCell id="4aJQE2NeYYkSTtwL2ucY-45" value="N" style="resizable=0;html=1;whiteSpace=wrap;align=right;verticalAlign=bottom;" connectable="0" vertex="1" parent="4aJQE2NeYYkSTtwL2ucY-44">
          <mxGeometry x="1" relative="1" as="geometry">
            <mxPoint x="-10" y="31" as="offset" />
          </mxGeometry>
        </mxCell>
        <mxCell id="4aJQE2NeYYkSTtwL2ucY-46" value="" style="endArrow=none;html=1;rounded=0;exitX=0.5;exitY=1;exitDx=0;exitDy=0;entryX=0.5;entryY=0;entryDx=0;entryDy=0;" edge="1" parent="1" source="4aJQE2NeYYkSTtwL2ucY-1" target="4aJQE2NeYYkSTtwL2ucY-38">
          <mxGeometry relative="1" as="geometry">
            <mxPoint x="-10" y="-20" as="sourcePoint" />
            <mxPoint x="150" y="-20" as="targetPoint" />
          </mxGeometry>
        </mxCell>
        <mxCell id="4aJQE2NeYYkSTtwL2ucY-47" value="1" style="resizable=0;html=1;whiteSpace=wrap;align=right;verticalAlign=bottom;" connectable="0" vertex="1" parent="4aJQE2NeYYkSTtwL2ucY-46">
          <mxGeometry x="1" relative="1" as="geometry">
            <mxPoint x="-10" y="-10" as="offset" />
          </mxGeometry>
        </mxCell>
        <mxCell id="4aJQE2NeYYkSTtwL2ucY-50" value="Quantità" style="ellipse;whiteSpace=wrap;html=1;align=center;" vertex="1" parent="1">
          <mxGeometry x="-310" y="-220" width="100" height="40" as="geometry" />
        </mxCell>
        <mxCell id="4aJQE2NeYYkSTtwL2ucY-51" value="Spesa" style="ellipse;whiteSpace=wrap;html=1;align=center;" vertex="1" parent="1">
          <mxGeometry x="-210" y="10" width="100" height="40" as="geometry" />
        </mxCell>
        <mxCell id="4aJQE2NeYYkSTtwL2ucY-52" value="" style="endArrow=none;html=1;rounded=0;exitX=0.5;exitY=1;exitDx=0;exitDy=0;entryX=0;entryY=0;entryDx=0;entryDy=0;" edge="1" parent="1" source="4aJQE2NeYYkSTtwL2ucY-50" target="4aJQE2NeYYkSTtwL2ucY-15">
          <mxGeometry relative="1" as="geometry">
            <mxPoint x="-40" y="-40" as="sourcePoint" />
            <mxPoint x="120" y="-40" as="targetPoint" />
          </mxGeometry>
        </mxCell>
        <mxCell id="4aJQE2NeYYkSTtwL2ucY-53" value="Totale" style="ellipse;whiteSpace=wrap;html=1;align=center;dashed=1;" vertex="1" parent="1">
          <mxGeometry x="-120" y="-240" width="100" height="40" as="geometry" />
        </mxCell>
        <mxCell id="4aJQE2NeYYkSTtwL2ucY-54" value="" style="endArrow=none;html=1;rounded=0;exitX=0.5;exitY=1;exitDx=0;exitDy=0;entryX=0.5;entryY=0;entryDx=0;entryDy=0;" edge="1" parent="1" source="4aJQE2NeYYkSTtwL2ucY-53" target="4aJQE2NeYYkSTtwL2ucY-16">
          <mxGeometry relative="1" as="geometry">
            <mxPoint x="-10" y="-70" as="sourcePoint" />
            <mxPoint x="150" y="-70" as="targetPoint" />
          </mxGeometry>
        </mxCell>
        <mxCell id="4aJQE2NeYYkSTtwL2ucY-55" value="" style="endArrow=none;html=1;rounded=0;exitX=1;exitY=0.5;exitDx=0;exitDy=0;entryX=0;entryY=0.5;entryDx=0;entryDy=0;" edge="1" parent="1" source="4aJQE2NeYYkSTtwL2ucY-51" target="4aJQE2NeYYkSTtwL2ucY-29">
          <mxGeometry relative="1" as="geometry">
            <mxPoint x="30" y="-20" as="sourcePoint" />
            <mxPoint x="190" y="-20" as="targetPoint" />
          </mxGeometry>
        </mxCell>
        <mxCell id="4aJQE2NeYYkSTtwL2ucY-56" value="Prezzo" style="ellipse;whiteSpace=wrap;html=1;align=center;" vertex="1" parent="1">
          <mxGeometry x="-560" y="-135" width="100" height="40" as="geometry" />
        </mxCell>
        <mxCell id="4aJQE2NeYYkSTtwL2ucY-57" value="Quantità in magazzino" style="ellipse;whiteSpace=wrap;html=1;align=center;" vertex="1" parent="1">
          <mxGeometry x="-560" y="-65" width="100" height="40" as="geometry" />
        </mxCell>
        <mxCell id="4aJQE2NeYYkSTtwL2ucY-58" value="" style="endArrow=none;html=1;rounded=0;exitX=1;exitY=0.5;exitDx=0;exitDy=0;entryX=0;entryY=0.5;entryDx=0;entryDy=0;" edge="1" parent="1" source="4aJQE2NeYYkSTtwL2ucY-57" target="4aJQE2NeYYkSTtwL2ucY-14">
          <mxGeometry relative="1" as="geometry">
            <mxPoint x="30" y="-20" as="sourcePoint" />
            <mxPoint x="190" y="-20" as="targetPoint" />
          </mxGeometry>
        </mxCell>
        <mxCell id="4aJQE2NeYYkSTtwL2ucY-59" value="" style="endArrow=none;html=1;rounded=0;exitX=1;exitY=0.5;exitDx=0;exitDy=0;entryX=0;entryY=0.5;entryDx=0;entryDy=0;" edge="1" parent="1" source="4aJQE2NeYYkSTtwL2ucY-56" target="4aJQE2NeYYkSTtwL2ucY-14">
          <mxGeometry relative="1" as="geometry">
            <mxPoint x="30" y="-20" as="sourcePoint" />
            <mxPoint x="190" y="-20" as="targetPoint" />
          </mxGeometry>
        </mxCell>
        <mxCell id="4aJQE2NeYYkSTtwL2ucY-60" value="Data" style="ellipse;whiteSpace=wrap;html=1;align=center;" vertex="1" parent="1">
          <mxGeometry x="-210" y="60" width="100" height="40" as="geometry" />
        </mxCell>
        <mxCell id="4aJQE2NeYYkSTtwL2ucY-61" value="" style="endArrow=none;html=1;rounded=0;exitX=0;exitY=0.5;exitDx=0;exitDy=0;entryX=1;entryY=0.5;entryDx=0;entryDy=0;" edge="1" parent="1" source="4aJQE2NeYYkSTtwL2ucY-29" target="4aJQE2NeYYkSTtwL2ucY-60">
          <mxGeometry relative="1" as="geometry">
            <mxPoint x="-30" y="-40" as="sourcePoint" />
            <mxPoint x="130" y="-40" as="targetPoint" />
          </mxGeometry>
        </mxCell>
        <mxCell id="4aJQE2NeYYkSTtwL2ucY-62" value="Indirizzo di spedizione" style="ellipse;whiteSpace=wrap;html=1;align=center;" vertex="1" parent="1">
          <mxGeometry x="-210" y="110" width="100" height="40" as="geometry" />
        </mxCell>
        <mxCell id="4aJQE2NeYYkSTtwL2ucY-63" value="" style="endArrow=none;html=1;rounded=0;exitX=0;exitY=0.5;exitDx=0;exitDy=0;entryX=1;entryY=0.5;entryDx=0;entryDy=0;" edge="1" parent="1" source="4aJQE2NeYYkSTtwL2ucY-29" target="4aJQE2NeYYkSTtwL2ucY-62">
          <mxGeometry relative="1" as="geometry">
            <mxPoint x="-20" y="80" as="sourcePoint" />
            <mxPoint x="140" y="80" as="targetPoint" />
          </mxGeometry>
        </mxCell>
        <mxCell id="4aJQE2NeYYkSTtwL2ucY-64" value="Numero carta/iban" style="ellipse;whiteSpace=wrap;html=1;align=center;" vertex="1" parent="1">
          <mxGeometry x="370" y="80" width="100" height="40" as="geometry" />
        </mxCell>
        <mxCell id="4aJQE2NeYYkSTtwL2ucY-65" value="Metodo" style="ellipse;whiteSpace=wrap;html=1;align=center;" vertex="1" parent="1">
          <mxGeometry x="240" y="130" width="100" height="40" as="geometry" />
        </mxCell>
        <mxCell id="4aJQE2NeYYkSTtwL2ucY-66" value="" style="endArrow=none;html=1;rounded=0;exitX=0.5;exitY=0;exitDx=0;exitDy=0;entryX=1;entryY=0.5;entryDx=0;entryDy=0;" edge="1" parent="1" source="4aJQE2NeYYkSTtwL2ucY-64" target="4aJQE2NeYYkSTtwL2ucY-37">
          <mxGeometry relative="1" as="geometry">
            <mxPoint x="-80" y="160" as="sourcePoint" />
            <mxPoint x="80" y="160" as="targetPoint" />
          </mxGeometry>
        </mxCell>
        <mxCell id="4aJQE2NeYYkSTtwL2ucY-67" value="" style="endArrow=none;html=1;rounded=0;exitX=0.5;exitY=1;exitDx=0;exitDy=0;entryX=0.5;entryY=0;entryDx=0;entryDy=0;" edge="1" parent="1" source="4aJQE2NeYYkSTtwL2ucY-37" target="4aJQE2NeYYkSTtwL2ucY-65">
          <mxGeometry relative="1" as="geometry">
            <mxPoint x="-80" y="160" as="sourcePoint" />
            <mxPoint x="80" y="160" as="targetPoint" />
          </mxGeometry>
        </mxCell>
        <mxCell id="4aJQE2NeYYkSTtwL2ucY-68" value="Spedizione" style="whiteSpace=wrap;html=1;align=center;" vertex="1" parent="1">
          <mxGeometry x="-60" y="240" width="100" height="40" as="geometry" />
        </mxCell>
        <mxCell id="4aJQE2NeYYkSTtwL2ucY-69" value="Possiede" style="shape=rhombus;perimeter=rhombusPerimeter;whiteSpace=wrap;html=1;align=center;" vertex="1" parent="1">
          <mxGeometry x="-70" y="140" width="120" height="60" as="geometry" />
        </mxCell>
        <mxCell id="4aJQE2NeYYkSTtwL2ucY-70" value="" style="endArrow=none;html=1;rounded=0;exitX=0.5;exitY=1;exitDx=0;exitDy=0;entryX=0.5;entryY=0;entryDx=0;entryDy=0;" edge="1" parent="1" source="4aJQE2NeYYkSTtwL2ucY-29" target="4aJQE2NeYYkSTtwL2ucY-69">
          <mxGeometry relative="1" as="geometry">
            <mxPoint x="-10" y="130" as="sourcePoint" />
            <mxPoint x="150" y="130" as="targetPoint" />
          </mxGeometry>
        </mxCell>
        <mxCell id="4aJQE2NeYYkSTtwL2ucY-71" value="1" style="resizable=0;html=1;whiteSpace=wrap;align=right;verticalAlign=bottom;" connectable="0" vertex="1" parent="4aJQE2NeYYkSTtwL2ucY-70">
          <mxGeometry x="1" relative="1" as="geometry">
            <mxPoint x="20" y="-20" as="offset" />
          </mxGeometry>
        </mxCell>
        <mxCell id="4aJQE2NeYYkSTtwL2ucY-79" value="Corriere" style="ellipse;whiteSpace=wrap;html=1;align=center;" vertex="1" parent="1">
          <mxGeometry x="-140" y="310" width="100" height="40" as="geometry" />
        </mxCell>
        <mxCell id="4aJQE2NeYYkSTtwL2ucY-80" value="Numero di spedizione" style="ellipse;whiteSpace=wrap;html=1;align=center;" vertex="1" parent="1">
          <mxGeometry x="-60" y="350" width="100" height="40" as="geometry" />
        </mxCell>
        <mxCell id="4aJQE2NeYYkSTtwL2ucY-81" value="Giorno di arrivo previsto" style="ellipse;whiteSpace=wrap;html=1;align=center;" vertex="1" parent="1">
          <mxGeometry x="20" y="310" width="100" height="40" as="geometry" />
        </mxCell>
        <mxCell id="4aJQE2NeYYkSTtwL2ucY-82" value="" style="endArrow=none;html=1;rounded=0;exitX=0.5;exitY=1;exitDx=0;exitDy=0;entryX=0.5;entryY=0;entryDx=0;entryDy=0;" edge="1" parent="1" source="4aJQE2NeYYkSTtwL2ucY-68" target="4aJQE2NeYYkSTtwL2ucY-79">
          <mxGeometry relative="1" as="geometry">
            <mxPoint x="-60" y="240" as="sourcePoint" />
            <mxPoint x="100" y="240" as="targetPoint" />
          </mxGeometry>
        </mxCell>
        <mxCell id="4aJQE2NeYYkSTtwL2ucY-83" value="" style="endArrow=none;html=1;rounded=0;exitX=0.5;exitY=0;exitDx=0;exitDy=0;entryX=0.5;entryY=1;entryDx=0;entryDy=0;" edge="1" parent="1" source="4aJQE2NeYYkSTtwL2ucY-81" target="4aJQE2NeYYkSTtwL2ucY-68">
          <mxGeometry relative="1" as="geometry">
            <mxPoint x="-60" y="240" as="sourcePoint" />
            <mxPoint x="100" y="240" as="targetPoint" />
          </mxGeometry>
        </mxCell>
        <mxCell id="4aJQE2NeYYkSTtwL2ucY-84" value="" style="endArrow=none;html=1;rounded=0;exitX=0.5;exitY=1;exitDx=0;exitDy=0;entryX=0.5;entryY=0;entryDx=0;entryDy=0;" edge="1" parent="1" source="4aJQE2NeYYkSTtwL2ucY-68" target="4aJQE2NeYYkSTtwL2ucY-80">
          <mxGeometry relative="1" as="geometry">
            <mxPoint x="-60" y="240" as="sourcePoint" />
            <mxPoint x="100" y="240" as="targetPoint" />
          </mxGeometry>
        </mxCell>
        <mxCell id="4aJQE2NeYYkSTtwL2ucY-87" value="N" style="resizable=0;html=1;whiteSpace=wrap;align=right;verticalAlign=bottom;" connectable="0" vertex="1" parent="1">
          <mxGeometry x="60" y="100" as="geometry" />
        </mxCell>
        <mxCell id="4aJQE2NeYYkSTtwL2ucY-90" value="" style="endArrow=none;html=1;rounded=0;exitX=0.5;exitY=0;exitDx=0;exitDy=0;entryX=0.5;entryY=1;entryDx=0;entryDy=0;" edge="1" parent="1" source="4aJQE2NeYYkSTtwL2ucY-68" target="4aJQE2NeYYkSTtwL2ucY-69">
          <mxGeometry width="50" height="50" relative="1" as="geometry">
            <mxPoint x="210" y="180" as="sourcePoint" />
            <mxPoint x="260" y="130" as="targetPoint" />
          </mxGeometry>
        </mxCell>
        <mxCell id="4aJQE2NeYYkSTtwL2ucY-91" value="1" style="resizable=0;html=1;whiteSpace=wrap;align=right;verticalAlign=bottom;" connectable="0" vertex="1" parent="1">
          <mxGeometry x="10" y="240" as="geometry" />
        </mxCell>
        <mxCell id="4aJQE2NeYYkSTtwL2ucY-93" value="ID" style="ellipse;whiteSpace=wrap;html=1;align=center;" vertex="1" parent="1">
          <mxGeometry x="10" y="-240" width="100" height="40" as="geometry" />
        </mxCell>
        <mxCell id="4aJQE2NeYYkSTtwL2ucY-94" value="" style="endArrow=none;html=1;rounded=0;exitX=0.5;exitY=0;exitDx=0;exitDy=0;entryX=0.5;entryY=1;entryDx=0;entryDy=0;" edge="1" parent="1" source="4aJQE2NeYYkSTtwL2ucY-16" target="4aJQE2NeYYkSTtwL2ucY-93">
          <mxGeometry width="50" height="50" relative="1" as="geometry">
            <mxPoint x="210" y="180" as="sourcePoint" />
            <mxPoint x="260" y="130" as="targetPoint" />
          </mxGeometry>
        </mxCell>
        <mxCell id="4aJQE2NeYYkSTtwL2ucY-95" value="" style="endArrow=none;html=1;rounded=0;exitX=0.5;exitY=1;exitDx=0;exitDy=0;entryX=0.5;entryY=0;entryDx=0;entryDy=0;" edge="1" parent="1" source="4aJQE2NeYYkSTtwL2ucY-16" target="4aJQE2NeYYkSTtwL2ucY-86">
          <mxGeometry relative="1" as="geometry">
            <mxPoint x="-10" y="-110" as="sourcePoint" />
            <mxPoint x="-10" y="60" as="targetPoint" />
          </mxGeometry>
        </mxCell>
        <mxCell id="4aJQE2NeYYkSTtwL2ucY-86" value="Possiede" style="shape=rhombus;perimeter=rhombusPerimeter;whiteSpace=wrap;html=1;align=center;" vertex="1" parent="1">
          <mxGeometry x="-70" y="-60" width="120" height="60" as="geometry" />
        </mxCell>
      </root>
    </mxGraphModel>
  </diagram>
</mxfile>
